<?xml version="1.0" standalone="no"?>
<!DOCTYPE svg PUBLIC "-//W3C//DTD SVG 20010904//EN"
 "http://www.w3.org/TR/2001/REC-SVG-20010904/DTD/svg10.dtd">
<svg version="1.0" xmlns="http://www.w3.org/2000/svg"
 width="2048.000000pt" height="2048.000000pt" viewBox="0 0 2048.000000 2048.000000"
 preserveAspectRatio="xMidYMid meet">

<g transform="translate(0.000000,2048.000000) scale(0.100000,-0.100000)"
fill="#000000" stroke="none">
<path d="M10617 18184 c3 -8 9 -14 15 -14 5 0 6 -4 3 -10 -9 -15 -23 -12 -42
10 -18 21 -39 28 -28 9 9 -14 -24 -49 -47 -49 -11 0 -18 7 -18 20 0 14 -7 20
-21 20 -18 0 -19 -2 -9 -15 18 -22 2 -36 -58 -52 -64 -17 -72 -16 -72 5 0 10
-3 21 -6 24 -9 10 -44 -4 -44 -18 0 -7 -9 -19 -21 -27 -17 -13 -26 -13 -67 -1
-26 8 -52 12 -59 10 -7 -3 -15 -1 -18 5 -10 16 -26 -1 -23 -24 2 -18 -4 -23
-37 -31 -22 -4 -47 -11 -55 -14 -8 -3 -21 -6 -28 -8 -8 -1 -19 -9 -25 -17 -7
-7 -29 -24 -51 -36 -30 -17 -41 -19 -53 -10 -29 24 -173 -72 -173 -116 0 -31
-37 -58 -73 -52 -22 3 -31 0 -34 -14 -3 -10 -22 -21 -49 -28 -37 -9 -43 -15
-41 -34 1 -16 -3 -22 -18 -22 -38 -1 -95 -70 -87 -107 4 -18 -35 -26 -61 -13
-23 12 -27 12 -27 0 0 -7 -10 -17 -22 -21 -28 -8 -77 -54 -78 -71 0 -7 -6 -13
-14 -13 -9 0 -12 -7 -9 -19 3 -14 -7 -27 -41 -51 -26 -17 -44 -36 -40 -41 8
-13 -18 -69 -32 -69 -6 0 -17 -7 -24 -15 -7 -9 -8 -15 -2 -15 12 0 23 -62 12
-73 -4 -5 -18 -4 -30 3 -17 9 -26 8 -48 -6 l-27 -18 35 -9 c34 -9 34 -10 11
-18 -15 -6 -21 -14 -17 -25 4 -10 -2 -23 -16 -33 -22 -19 -21 -29 8 -68 16
-22 16 -23 -7 -23 -29 0 -44 -31 -54 -106 -4 -34 -3 -54 5 -59 8 -5 8 -11 -2
-22 -10 -12 -9 -17 6 -28 15 -11 15 -16 4 -34 -7 -12 -16 -21 -20 -21 -5 0 -8
-8 -8 -18 0 -10 -4 -22 -9 -27 -24 -27 -20 -62 9 -95 23 -25 27 -36 19 -47 -6
-7 -18 -13 -25 -13 -11 0 -12 -4 -2 -19 10 -16 7 -24 -15 -51 -15 -17 -27 -37
-28 -43 -2 -24 3 -62 11 -76 4 -8 4 -27 -1 -43 -6 -22 -4 -30 6 -34 19 -8 9
-94 -13 -111 -13 -11 -13 -13 1 -18 8 -4 25 -1 36 5 36 18 46 0 15 -25 -28
-22 -28 -24 -11 -42 9 -11 17 -26 17 -34 0 -8 5 -20 11 -26 8 -8 4 -22 -14
-49 -40 -62 -43 -82 -13 -96 32 -14 32 -25 1 -62 l-24 -30 40 -38 c28 -28 39
-46 39 -68 0 -16 4 -30 10 -30 13 0 10 -81 -3 -98 -11 -14 27 -62 49 -62 15 0
34 -31 34 -54 0 -11 -9 -16 -30 -16 -16 0 -30 -4 -30 -10 0 -5 -1 -13 -2 -17
-1 -5 11 -10 28 -13 22 -4 29 -11 28 -28 0 -15 5 -22 17 -22 21 0 39 -28 39
-60 0 -11 7 -23 15 -26 11 -5 15 -17 13 -43 -3 -31 0 -36 19 -36 33 0 36 -11
8 -29 -41 -27 -31 -39 25 -32 42 6 51 4 57 -10 4 -10 -1 -22 -11 -30 -24 -17
-13 -32 32 -40 20 -4 45 -11 55 -16 17 -9 17 -11 3 -27 -15 -16 -14 -19 9 -29
14 -6 25 -17 25 -24 0 -7 9 -24 20 -38 13 -18 16 -28 8 -37 -8 -10 -5 -13 10
-13 25 0 102 -70 102 -93 0 -24 -13 -21 -25 5 -7 16 -20 23 -42 25 -38 3 -37
5 -17 -35 11 -23 22 -32 40 -32 13 0 33 -8 44 -17 73 -65 98 -77 116 -62 11 9
18 8 32 -5 10 -9 25 -16 34 -16 8 0 29 -16 47 -35 24 -27 39 -35 66 -35 39 0
43 -6 18 -26 -15 -12 -16 -15 -3 -23 8 -5 17 -8 22 -5 4 3 26 -7 49 -22 24
-15 54 -27 68 -28 14 -1 31 -4 37 -8 18 -12 107 -31 137 -29 21 1 30 -5 37
-24 9 -25 24 -32 34 -17 7 12 66 6 116 -12 28 -9 47 -12 50 -5 9 13 40 0 40
-16 0 -14 45 -7 91 15 20 9 32 9 47 1 11 -6 54 -11 96 -11 50 0 76 -4 78 -12
3 -9 16 -4 41 15 39 30 57 33 75 15 10 -10 15 -10 22 2 9 13 14 8 12 -11 -2
-9 36 -1 65 13 20 10 43 8 115 -8 21 -5 32 0 54 26 20 22 35 30 51 27 12 -2
35 4 50 14 15 11 40 19 56 19 15 0 27 5 27 10 0 6 4 10 9 10 8 0 51 33 92 72
34 32 60 40 105 33 24 -3 50 -3 56 1 7 5 28 7 47 5 33 -3 34 -2 27 29 -5 30
-4 32 17 28 13 -2 29 2 36 10 11 11 15 11 21 1 12 -18 69 30 69 59 1 28 23 52
46 52 9 0 19 9 22 20 3 10 13 22 23 25 9 3 25 14 35 25 10 11 29 20 42 20 22
0 28 12 24 47 -1 7 7 21 19 33 11 11 20 30 20 42 0 11 13 33 28 47 39 35 65
78 59 95 -3 8 4 18 19 25 17 8 24 19 24 40 0 16 4 32 9 35 4 3 11 20 15 38 3
18 16 41 29 51 15 13 18 20 10 24 -20 8 -15 27 12 53 16 15 25 34 25 54 0 17
7 45 16 61 9 17 13 42 10 57 -3 16 0 31 9 38 8 7 15 21 15 32 0 27 18 58 34
58 10 0 13 13 10 50 -4 56 14 108 52 148 19 21 24 39 26 82 0 30 0 62 -1 70
-2 8 -4 29 -4 45 -1 17 -6 35 -10 42 -4 7 -1 23 7 36 21 31 46 115 46 154 0
17 -7 39 -15 47 -14 14 -14 18 -1 39 12 18 13 31 5 60 -5 20 -14 39 -19 42 -6
4 -5 15 2 28 16 28 17 39 5 55 -5 7 -7 28 -4 46 4 25 2 33 -7 30 -6 -2 -20 2
-31 10 -19 15 -19 15 -1 16 25 0 45 28 46 64 0 22 -4 27 -16 22 -9 -3 -20 -6
-25 -6 -6 0 -9 -8 -8 -17 3 -31 -1 -43 -12 -43 -6 0 -9 9 -6 20 3 13 0 20 -9
20 -12 0 -34 29 -34 46 0 3 14 4 32 0 48 -10 95 44 52 61 -10 3 -12 8 -5 12 7
5 5 19 -7 43 -14 29 -26 38 -65 49 -56 15 -64 23 -43 45 9 8 16 20 16 25 0 6
7 6 19 -1 11 -5 22 -10 25 -10 11 0 -14 61 -33 82 -13 13 -19 29 -15 38 16 37
16 60 0 66 -9 3 -16 14 -16 23 0 21 -19 41 -39 41 -14 0 -14 -2 -1 -10 8 -5
11 -12 7 -17 -4 -4 -15 -3 -24 3 -11 7 -17 29 -20 74 -4 73 -23 100 -73 100
-32 0 -36 6 -20 30 10 17 -5 40 -27 40 -8 0 -29 11 -47 25 -18 14 -43 25 -56
25 -15 0 -20 5 -17 14 3 8 -1 17 -9 20 -9 3 -13 10 -10 14 3 5 -14 25 -37 45
-23 20 -50 43 -59 52 -10 8 -27 15 -39 15 -15 0 -19 5 -15 18 4 12 -8 26 -45
51 -35 24 -49 41 -48 55 3 38 -1 46 -20 46 -10 0 -21 6 -24 13 -5 15 -59 16
-90 2 -10 -4 -21 -5 -24 -1 -4 3 1 6 10 6 20 0 23 40 5 58 -17 17 -48 15 -48
-3 0 -28 -32 -15 -76 29 -44 45 -104 73 -125 60 -7 -4 -9 -3 -5 4 3 6 2 13 -4
17 -5 3 -10 14 -10 23 0 20 -50 45 -73 36 -26 -10 -43 7 -22 22 17 12 16 14
-9 24 -18 7 -33 7 -46 0 -24 -13 -43 -5 -55 23 -9 20 -17 22 -75 20 -36 -1
-72 -4 -80 -7 -8 -3 -31 -4 -50 -3 -30 2 -35 -1 -38 -21 -4 -27 -27 -24 -27 3
0 26 -21 30 -28 5 -3 -11 -9 -20 -14 -20 -15 0 -63 47 -63 62 0 9 -9 18 -19
21 -14 3 -18 1 -14 -9z m323 -73 c0 -14 -18 -23 -30 -16 -6 4 -8 11 -5 16 8
12 35 12 35 0z m-196 -37 c4 -11 1 -14 -11 -12 -9 2 -18 9 -21 16 -6 18 25 15
32 -4z m461 -104 c3 -5 -1 -10 -10 -10 -9 0 -13 5 -10 10 3 6 8 10 10 10 2 0
7 -4 10 -10z m-1658 -245 c8 -21 -1 -28 -26 -20 -17 5 -18 9 -8 20 16 19 26
18 34 0z m2573 -461 c0 -2 -7 -4 -15 -4 -8 0 -15 4 -15 10 0 5 7 7 15 4 8 -4
15 -8 15 -10z m-52 -36 c-6 -18 -28 -21 -28 -4 0 9 7 16 16 16 9 0 14 -5 12
-12z m122 -113 c0 -8 -9 -15 -20 -15 -22 0 -27 15 -7 23 21 9 27 7 27 -8z m35
-55 c3 -5 2 -10 -4 -10 -5 0 -13 5 -16 10 -3 6 -2 10 4 10 5 0 13 -4 16 -10z
m-35 -56 c0 -8 -4 -12 -10 -9 -5 3 -10 10 -10 16 0 5 5 9 10 9 6 0 10 -7 10
-16z m-3293 -406 c-3 -8 -6 -5 -6 6 -1 11 2 17 5 13 3 -3 4 -12 1 -19z"/>
<path d="M5100 16292 c0 -4 -28 -8 -62 -9 -35 0 -70 -3 -78 -6 -84 -28 -139
-34 -159 -14 -10 10 -11 5 -5 -27 l7 -38 -34 7 c-19 4 -43 9 -55 12 -11 2 -26
-3 -33 -11 -12 -14 -10 -16 13 -16 19 0 26 -5 26 -19 0 -10 -7 -21 -15 -25 -9
-3 -15 0 -15 9 0 19 -59 35 -83 23 -10 -5 -15 -13 -11 -19 3 -5 0 -17 -7 -25
-10 -13 -10 -17 1 -24 8 -5 11 -12 7 -17 -5 -4 -12 -1 -17 6 -4 8 -15 11 -25
7 -13 -5 -15 -13 -11 -32 6 -21 4 -25 -7 -21 -8 3 -31 -5 -50 -19 -20 -13 -39
-24 -44 -24 -4 0 -26 -20 -50 -45 -23 -25 -44 -45 -46 -45 -12 0 -16 34 -5 42
9 6 5 8 -12 6 -14 -2 -29 -12 -34 -24 -6 -12 -22 -29 -38 -39 -15 -9 -33 -25
-38 -36 -6 -11 -21 -19 -36 -19 -32 0 -54 -21 -54 -53 0 -18 -9 -28 -41 -42
-31 -15 -39 -23 -35 -38 5 -22 -31 -97 -48 -97 -16 -1 -86 -68 -86 -84 0 -7
-7 -19 -15 -26 -17 -14 -20 -40 -5 -40 6 0 10 -5 10 -11 0 -5 -4 -8 -8 -5 -16
10 -49 -23 -55 -53 -4 -17 -16 -40 -27 -51 -15 -15 -17 -20 -5 -20 18 0 20
-40 3 -40 -7 0 -24 -9 -37 -19 -31 -23 -45 -101 -24 -131 12 -17 12 -20 -2
-20 -21 0 -30 -27 -15 -45 8 -9 21 -13 36 -9 29 7 31 -6 6 -29 -25 -23 -42
-21 -42 4 0 15 -4 19 -16 15 -9 -3 -21 -6 -27 -6 -14 0 22 -34 46 -43 9 -3 17
-11 17 -16 0 -18 -22 -23 -46 -10 -34 18 -48 2 -33 -37 6 -16 13 -23 16 -16 3
6 13 12 23 12 14 0 18 -8 18 -35 0 -29 -4 -35 -21 -35 -11 0 -29 7 -39 17 -10
9 -21 14 -24 10 -10 -10 16 -47 34 -47 21 0 46 -36 36 -52 -5 -7 -12 -5 -21 7
-12 18 -14 17 -42 -9 -17 -16 -27 -35 -24 -43 4 -11 9 -10 20 7 14 19 50 30
38 11 -3 -5 -1 -12 3 -15 11 -6 9 -66 -2 -84 -4 -7 -14 -11 -22 -8 -16 6 -19
-19 -4 -29 16 -10 12 -45 -5 -45 -22 0 -18 -28 5 -40 16 -8 19 -17 14 -38 -4
-15 -11 -29 -15 -32 -13 -9 -7 -53 10 -73 11 -13 12 -20 3 -29 -9 -9 -8 -16 4
-29 10 -11 13 -23 8 -31 -11 -18 -4 -152 8 -159 6 -4 8 -11 4 -17 -9 -16 32
-62 51 -55 12 5 14 1 9 -14 -15 -47 30 -96 52 -57 7 13 10 10 15 -15 5 -22 12
-31 27 -31 11 0 20 -4 20 -10 0 -5 -7 -10 -15 -10 -8 0 -15 -4 -15 -9 0 -5 -2
-16 -5 -24 -4 -9 9 -20 40 -32 29 -12 44 -25 42 -35 -1 -9 7 -16 21 -18 13 -2
22 -10 22 -21 0 -10 3 -21 7 -25 4 -4 8 -15 8 -24 0 -9 15 -24 33 -32 26 -12
31 -19 27 -37 -4 -15 -1 -23 8 -23 7 0 13 -11 12 -26 0 -23 7 -29 43 -42 23
-9 42 -22 42 -29 0 -9 14 -13 43 -13 24 0 48 -5 55 -12 14 -14 80 -38 105 -38
10 0 21 -8 24 -17 4 -10 15 -24 25 -31 10 -7 18 -24 18 -37 0 -30 36 -65 66
-65 12 0 27 -7 34 -15 7 -8 19 -15 26 -15 8 0 14 -4 14 -10 0 -5 13 -10 29
-10 16 0 31 -6 34 -12 4 -10 8 -10 23 0 39 26 47 25 68 -1 18 -22 28 -26 66
-23 25 2 50 5 55 7 19 6 53 -12 69 -36 14 -21 19 -23 35 -13 16 10 25 6 59
-20 44 -35 57 -39 69 -19 13 20 105 41 114 26 6 -10 11 -9 25 2 9 7 28 12 41
11 15 -2 30 3 38 14 11 16 17 16 39 6 14 -6 26 -18 26 -27 0 -19 3 -19 52 6
22 11 48 19 58 16 10 -2 24 -1 31 4 11 8 10 12 -6 25 -16 12 -17 16 -6 23 7 5
21 6 31 4 11 -3 29 8 49 29 27 29 33 31 50 21 12 -7 22 -9 26 -3 3 5 19 15 35
23 24 12 31 13 40 2 8 -9 8 -15 0 -20 -18 -11 -1 -25 31 -25 16 0 29 -4 29
-10 0 -5 7 -10 15 -10 9 0 12 6 9 15 -5 11 2 15 26 15 20 0 44 10 63 26 31 26
31 26 47 7 15 -19 17 -19 49 -2 37 20 60 46 61 70 0 25 31 46 77 54 23 4 55
16 70 28 16 13 38 20 55 18 32 -3 35 5 11 31 -14 16 -15 21 -4 27 7 5 21 6 31
4 12 -3 20 2 24 15 4 11 14 23 24 26 60 23 89 56 49 56 -12 0 -29 -4 -37 -9
-8 -6 -18 -7 -22 -5 -12 8 21 64 37 64 8 0 15 5 15 10 0 6 25 10 55 10 69 0
72 -24 7 -59 -18 -10 -20 -15 -12 -31 16 -30 100 -25 100 5 0 8 9 17 21 20
l21 7 -21 15 c-27 18 -29 80 -4 99 10 7 16 14 13 16 -3 2 -18 11 -35 20 -19
10 -31 26 -33 42 -4 28 7 33 25 15 18 -18 63 -2 63 22 0 11 12 30 26 42 24 21
24 24 11 50 l-14 27 -15 -22 c-8 -12 -19 -18 -26 -14 -18 11 -15 35 8 64 18
22 19 27 6 34 -23 13 -9 40 14 28 26 -14 30 -13 30 10 0 10 -8 23 -17 29 -15
8 -15 11 -4 25 11 13 11 22 2 42 -18 39 -14 74 8 74 31 0 46 26 32 54 -19 35
-10 61 21 61 22 -1 26 4 25 25 -1 14 -11 33 -22 42 -17 15 -18 19 -5 28 8 5
22 7 32 4 25 -7 32 13 8 26 -11 6 -19 14 -18 18 1 4 -2 18 -6 30 -6 18 -3 29
13 46 26 27 26 32 3 38 -15 4 -18 12 -14 37 2 18 11 35 19 38 11 4 11 8 3 13
-8 5 -9 13 -2 26 17 35 24 95 11 110 -16 20 -29 18 -29 -5 0 -18 -18 -31 -44
-31 -10 0 -11 10 -6 38 4 21 10 43 13 49 4 6 1 13 -7 16 -19 8 -26 55 -9 61 8
4 36 7 61 8 43 1 44 2 10 5 -27 3 -45 14 -69 40 -27 32 -31 42 -26 80 2 23 1
43 -4 43 -5 0 -9 -4 -9 -10 0 -5 -7 -10 -15 -10 -11 0 -14 7 -9 24 4 18 1 25
-13 29 -15 4 -14 5 5 6 30 1 29 31 -3 69 -14 17 -25 39 -25 50 0 12 -4 24 -10
27 -5 3 -10 15 -10 26 0 30 -47 97 -80 114 -32 17 -41 51 -15 61 22 9 18 24
-6 24 -12 0 -23 8 -26 19 -4 14 -15 21 -41 23 -38 3 -55 23 -25 31 14 4 14 5
-4 6 -19 1 -22 5 -17 30 5 22 0 39 -17 63 -36 51 -41 55 -65 50 -24 -4 -42 27
-28 49 4 8 3 9 -4 5 -7 -4 -12 -1 -12 9 0 9 9 19 20 22 12 3 19 11 17 17 -5
14 -47 21 -47 7 0 -6 -12 -11 -26 -11 -32 0 -28 22 6 30 18 4 20 7 9 16 -19
15 -99 10 -110 -7 -7 -12 -10 -12 -21 0 -10 11 -10 14 0 18 15 6 15 13 -3 37
-14 19 -15 19 -34 -3 -11 -13 -21 -27 -23 -32 -3 -10 -69 10 -79 25 -4 4 -16
5 -27 2 -15 -5 -24 -1 -31 13 -15 27 -14 34 3 28 8 -3 17 1 21 10 6 18 -10 33
-36 33 -18 0 -33 26 -23 41 3 5 -2 9 -11 9 -9 0 -19 -9 -22 -20 -6 -23 -10
-24 -46 -7 -19 8 -26 18 -23 29 6 25 -12 33 -33 14 -10 -9 -23 -16 -29 -16
-12 0 -78 35 -100 53 -10 8 -16 7 -22 -3 -5 -8 -15 -10 -26 -5 -32 13 -56 16
-133 16 -56 -1 -79 3 -93 16 -12 11 -36 17 -68 17 -35 0 -50 4 -50 13 0 7 -4
13 -10 13 -5 0 -10 -4 -10 -8z m440 -96 c0 -20 -38 -30 -55 -16 -24 20 -17 30
20 30 24 0 35 -5 35 -14z m-930 -180 c0 -11 -19 -15 -25 -6 -3 5 1 10 9 10 9
0 16 -2 16 -4z m-115 -46 c3 -6 -1 -13 -10 -16 -19 -8 -30 0 -20 15 8 14 22
14 30 1z m-142 -76 c18 -7 24 -24 8 -24 -5 0 -23 -15 -41 -32 -26 -27 -31 -29
-26 -12 5 15 1 24 -11 29 -16 6 -16 8 5 16 12 4 22 16 22 25 0 9 5 13 13 10 6
-3 20 -9 30 -12z m1817 -75 c0 -6 -4 -7 -10 -4 -5 3 -10 11 -10 16 0 6 5 7 10
4 6 -3 10 -11 10 -16z m-1911 -46 c-7 -10 -15 -20 -16 -22 -2 -2 -3 5 -3 17 0
14 6 22 16 22 14 0 15 -3 3 -17z m1925 -67 c-21 -15 -30 -14 -19 3 3 6 14 11
23 11 13 0 13 -2 -4 -14z m190 -132 c12 -5 13 -10 5 -25 -17 -33 -58 -18 -45
16 6 16 16 18 40 9z m-2554 -474 c0 -5 -4 -10 -10 -10 -5 0 -10 5 -10 10 0 6
5 10 10 10 6 0 10 -4 10 -10z m-45 -230 c3 -5 -1 -10 -9 -10 -9 0 -16 5 -16
10 0 6 4 10 9 10 6 0 13 -4 16 -10z m-55 -690 c0 -5 -5 -10 -11 -10 -5 0 -7 5
-4 10 3 6 8 10 11 10 2 0 4 -4 4 -10z m30 -40 c0 -5 -2 -10 -4 -10 -3 0 -8 5
-11 10 -3 6 -1 10 4 10 6 0 11 -4 11 -10z m247 -126 c-3 -3 -12 -4 -19 -1 -8
3 -5 6 6 6 11 1 17 -2 13 -5z m2513 -9 c7 -9 19 -14 27 -11 7 3 13 2 13 -3 0
-13 -33 -19 -58 -10 -24 9 -30 39 -8 39 7 0 19 -7 26 -15z m-2570 -48 c0 -2
-11 -14 -25 -27 -25 -23 -25 -23 -25 -2 0 11 8 23 18 25 24 7 32 7 32 4z
m2480 -131 c0 -16 -53 -40 -72 -33 -7 3 -4 6 7 6 11 1 26 10 33 21 14 23 32
26 32 6z m-1430 -556 c3 0 -3 -5 -13 -11 -19 -11 -57 -3 -57 12 0 7 32 7 70
-1z m380 0 c0 -5 -5 -10 -11 -10 -5 0 -7 5 -4 10 3 6 8 10 11 10 2 0 4 -4 4
-10z"/>
<path d="M5520 16271 c0 -11 31 -24 39 -16 3 3 -1 10 -9 15 -19 12 -30 12 -30
1z"/>
<path d="M5458 16263 c6 -2 18 -2 25 0 6 3 1 5 -13 5 -14 0 -19 -2 -12 -5z"/>
<path d="M6190 15909 c0 -5 5 -7 10 -4 6 3 10 8 10 11 0 2 -4 4 -10 4 -5 0
-10 -5 -10 -11z"/>
<path d="M15850 15793 c8 -3 19 -12 23 -19 4 -8 18 -14 30 -14 l22 1 -23 12
c-12 7 -19 16 -16 20 4 4 -6 7 -22 6 -16 0 -22 -3 -14 -6z"/>
<path d="M15760 15743 c-14 -9 -38 -25 -55 -36 -16 -12 -40 -20 -52 -19 -13 1
-23 -3 -23 -9 0 -7 -12 -22 -26 -36 -20 -18 -40 -25 -89 -28 -35 -2 -73 -9
-84 -15 -15 -7 -21 -8 -21 0 0 6 -16 10 -37 8 -31 -2 -40 1 -48 20 -11 25 -26
28 -58 11 -12 -7 -34 -12 -49 -11 -15 0 -28 -4 -28 -9 0 -5 7 -9 15 -9 26 0
17 -19 -17 -36 -18 -9 -43 -28 -55 -41 -16 -18 -29 -24 -47 -21 -16 3 -27 0
-30 -9 -4 -9 -13 -12 -27 -8 -12 4 -27 1 -37 -8 -11 -10 -37 -15 -77 -15 -103
1 -98 3 -91 -42 5 -33 3 -40 -10 -40 -12 0 -14 -6 -9 -30 6 -25 3 -31 -17 -39
-13 -5 -26 -7 -30 -4 -13 7 -9 23 4 20 6 -1 14 6 16 16 3 16 1 17 -17 8 -16
-9 -22 -8 -31 6 -8 13 -13 14 -16 6 -3 -7 -10 -13 -16 -13 -15 0 -88 -64 -88
-77 0 -7 -11 -13 -24 -13 -22 0 -81 -39 -98 -65 -3 -5 -16 -21 -27 -34 -12
-13 -21 -32 -21 -42 0 -11 -9 -24 -20 -31 -11 -7 -20 -20 -20 -30 0 -10 -21
-28 -52 -45 -38 -20 -58 -39 -72 -66 -18 -37 -18 -39 0 -52 18 -14 18 -14 -3
-15 -24 0 -33 -20 -10 -20 7 -1 5 -6 -5 -14 -11 -8 -18 -26 -18 -46 0 -24 -4
-31 -15 -27 -8 4 -22 -4 -34 -18 -10 -14 -26 -25 -34 -25 -25 0 -21 -81 4 -87
26 -7 24 -25 -5 -50 -16 -14 -27 -18 -34 -11 -19 19 -32 -3 -32 -51 0 -29 6
-53 14 -60 17 -14 13 -80 -6 -92 -7 -5 -21 -9 -30 -9 -21 0 -23 -11 -6 -28 18
-18 28 -112 11 -112 -7 0 -13 -6 -13 -12 1 -16 24 -126 40 -188 6 -25 9 -57 6
-72 -3 -16 -2 -28 3 -28 5 0 11 -17 14 -37 3 -21 8 -48 12 -60 6 -19 4 -23
-12 -23 -10 0 -24 -5 -30 -11 -16 -16 -4 -80 21 -107 l21 -24 -22 -17 c-17
-14 -21 -29 -21 -71 -1 -29 -6 -58 -11 -63 -23 -23 -12 -37 22 -30 29 6 31 5
18 -10 -7 -9 -20 -17 -27 -17 -8 0 -14 -4 -14 -10 0 -5 -9 -10 -20 -10 -28 0
-25 -19 5 -30 20 -8 25 -16 23 -37 -3 -24 1 -28 25 -31 18 -2 31 -11 37 -26 5
-13 16 -26 24 -29 9 -4 16 -17 16 -31 0 -13 7 -27 16 -30 15 -6 15 -8 0 -25
-15 -16 -15 -22 -4 -42 7 -13 20 -29 28 -36 12 -9 13 -14 3 -24 -21 -21 -15
-36 17 -48 27 -9 35 -20 31 -43 0 -5 3 -8 9 -8 5 0 10 4 10 10 0 5 18 8 41 7
32 -2 44 -8 55 -27 30 -56 9 -76 -47 -43 -33 20 -49 11 -31 -17 7 -11 12 -29
12 -40 0 -13 7 -20 20 -20 11 0 20 4 20 9 0 5 8 11 18 14 9 2 25 8 35 12 25
11 22 -17 -5 -34 l-21 -13 31 -30 c18 -16 32 -39 33 -51 0 -12 3 -16 6 -9 2 6
16 12 29 12 17 0 24 -6 24 -20 0 -11 -5 -20 -11 -20 -5 0 -8 -4 -4 -10 3 -5
12 -7 19 -4 7 3 19 -2 26 -11 7 -8 22 -15 35 -15 27 0 55 -29 55 -58 0 -25 35
-38 75 -28 24 6 36 -9 13 -16 -15 -5 -3 -37 17 -44 9 -4 24 1 35 11 15 13 22
14 40 5 14 -7 19 -17 16 -27 -9 -23 13 -43 48 -43 26 0 34 -5 43 -31 9 -22 17
-30 27 -26 9 4 21 1 28 -6 48 -46 72 -57 123 -56 61 2 92 -12 97 -43 3 -20 8
-23 39 -20 21 2 40 -1 44 -7 9 -16 44 -13 62 4 8 8 20 12 26 8 7 -5 21 -8 31
-8 11 0 21 -6 24 -14 3 -9 -1 -11 -17 -6 -17 5 -21 2 -21 -14 0 -12 6 -21 14
-21 8 0 16 -10 18 -22 4 -27 41 -36 64 -17 13 11 11 15 -13 35 -31 26 -16 32
32 14 21 -8 24 -14 19 -36 -7 -26 -6 -26 34 -19 35 6 41 4 47 -14 7 -22 30
-28 41 -10 3 6 16 8 29 5 14 -4 32 1 47 13 20 16 26 17 42 6 15 -12 24 -12 56
1 29 12 43 13 59 5 28 -15 84 -14 79 2 -3 6 -14 13 -26 15 -24 4 -26 10 -13
30 10 16 81 26 81 12 0 -13 77 -13 85 -1 3 6 13 9 23 9 9 0 22 0 27 2 6 1 34
2 63 1 45 -1 52 -4 52 -21 0 -25 26 -26 33 -1 4 15 13 18 55 16 30 -1 63 4 79
12 15 8 43 13 63 12 33 -2 45 1 95 20 17 7 15 9 -15 16 -23 5 -35 4 -38 -4 -2
-6 -10 -11 -18 -11 -10 0 -12 8 -7 33 8 42 7 42 43 23 32 -15 32 -15 26 9 -4
14 -2 25 4 25 5 0 10 9 10 20 0 11 -4 20 -10 20 -5 0 -10 -9 -10 -20 0 -22 -7
-25 -29 -11 -19 12 -6 41 18 41 11 0 23 5 26 10 4 6 11 8 16 4 22 -13 60 7 71
37 9 26 14 29 47 27 34 -3 36 -1 39 29 3 27 7 31 29 30 16 -1 29 5 37 18 6 11
21 29 34 40 12 11 22 31 22 43 0 12 6 22 13 22 8 0 20 11 27 25 7 14 17 25 22
25 4 0 8 5 8 12 0 17 51 68 68 68 10 0 12 7 8 24 -7 27 10 38 45 29 19 -5 21
-3 14 13 -28 69 -30 77 -17 81 20 7 14 23 -14 34 -26 9 -26 10 -8 30 13 14 25
18 45 14 19 -4 28 -1 32 9 4 9 14 16 23 16 10 0 14 5 11 15 -4 8 -2 17 3 20 6
4 4 17 -4 34 -13 25 -13 32 11 77 14 28 38 57 54 67 21 11 28 23 26 39 -1 18
2 22 17 20 27 -5 48 25 35 49 -7 14 -5 33 6 66 19 54 31 66 57 52 14 -7 18 -6
18 5 0 8 -5 18 -10 21 -17 10 -1 25 26 25 33 0 66 18 58 31 -3 6 -18 8 -32 4
-25 -6 -82 11 -82 25 0 4 7 13 15 20 12 10 18 10 31 0 12 -11 18 -10 31 3 23
23 9 47 -27 47 -28 0 -30 2 -30 38 0 26 6 41 20 50 29 17 25 33 -15 65 -43 34
-45 52 -6 44 21 -5 31 -2 35 10 8 20 -2 32 -13 14 -12 -19 -20 6 -14 46 4 23
13 35 34 43 36 15 36 21 -1 48 -33 24 -39 47 -15 56 11 4 13 14 8 36 -5 26 -2
32 16 37 25 6 27 25 5 58 -10 16 -26 25 -41 25 -22 0 -24 2 -13 15 11 13 15
13 22 3 6 -11 10 -10 17 1 6 9 11 10 15 2 10 -16 36 -13 36 4 0 9 -9 15 -25
15 -21 0 -25 5 -25 29 0 16 -6 31 -12 34 -10 3 -9 9 3 21 22 23 12 65 -18 79
-15 6 -22 16 -18 25 3 8 0 21 -6 28 -6 8 -9 23 -6 35 4 16 -1 24 -29 35 -19 8
-38 22 -41 30 -6 17 15 36 30 27 4 -3 5 11 2 31 -5 26 -3 40 9 51 20 20 12 64
-15 84 -11 7 -19 24 -19 38 0 29 -27 73 -46 73 -8 0 -14 -4 -14 -10 0 -5 -4
-10 -10 -10 -5 0 -7 13 -3 30 3 18 1 30 -5 30 -5 0 -8 8 -5 18 2 10 -6 27 -21
41 l-26 24 -26 -26 c-30 -30 -84 -38 -84 -12 0 8 5 15 11 15 7 0 8 11 4 30 -7
33 -4 35 26 20 29 -16 24 6 -6 26 -21 14 -31 15 -51 5 -27 -12 -27 -11 -38 40
-5 21 -10 25 -30 22 -20 -4 -25 0 -28 18 -2 20 -10 25 -40 27 -30 3 -36 6 -31
20 5 14 3 15 -8 5 -21 -21 -39 -15 -39 12 0 14 -4 25 -10 25 -5 0 -10 9 -10
20 0 11 -4 20 -9 20 -5 0 -9 13 -9 29 1 15 -2 33 -5 38 -11 18 -74 43 -106 43
-21 0 -31 5 -31 15 0 16 -7 18 -58 15 -18 -1 -40 4 -49 12 -24 19 -98 35 -122
26 -26 -9 -58 8 -64 34 -3 10 -14 18 -27 18 -17 0 -20 4 -15 20 5 15 3 18 -8
14 -8 -3 -18 -1 -21 4 -3 6 -14 8 -24 6 -11 -3 -21 3 -27 18 -6 14 -17 22 -30
21 -56 -6 -87 -17 -96 -34 -12 -24 -31 -24 -52 -1 -22 24 -21 41 1 58 15 12
12 13 -24 8 -30 -4 -49 -1 -68 11 -21 14 -31 15 -57 6 -41 -14 -81 -15 -59 -1
13 8 12 11 -5 24 -24 19 -24 19 -55 -1z m-1460 -1019 c0 -8 5 -14 10 -14 6 0
10 -8 10 -17 0 -14 -5 -13 -26 9 -15 14 -23 31 -20 37 9 14 26 5 26 -15z m-94
-39 c7 -13 9 -26 6 -30 -8 -8 -42 26 -42 42 0 22 24 14 36 -12z m3101 -271
c-3 -3 -12 -4 -19 -1 -8 3 -5 6 6 6 11 1 17 -2 13 -5z m23 -119 c0 -8 -4 -15
-10 -15 -5 0 -10 7 -10 15 0 8 5 15 10 15 6 0 10 -7 10 -15z m-3060 -1120 c0
-8 -7 -15 -15 -15 -8 0 -15 7 -15 15 0 8 7 15 15 15 8 0 15 -7 15 -15z m2823
-50 c4 -8 2 -17 -3 -20 -6 -4 -10 3 -10 14 0 25 6 27 13 6z m-359 -524 c3 -5
-1 -14 -8 -20 -16 -13 -32 2 -21 19 8 12 22 13 29 1z m-356 -138 c2 -8 -5 -13
-17 -13 -12 0 -21 6 -21 16 0 18 31 15 38 -3z m-382 -110 c-10 -10 -19 5 -10
18 6 11 8 11 12 0 2 -7 1 -15 -2 -18z m-656 -3 c0 -5 -7 -10 -15 -10 -8 0 -15
5 -15 10 0 6 7 10 15 10 8 0 15 -4 15 -10z m243 -66 c3 -3 0 -12 -6 -19 -13
-14 -41 0 -31 16 6 10 28 12 37 3z"/>
<path d="M3996 15675 c-16 -12 -17 -15 -4 -15 24 0 48 11 48 21 0 13 -23 10
-44 -6z"/>
<path d="M8917 15433 c-10 -9 -9 -23 2 -23 5 0 11 7 15 15 5 15 -5 20 -17 8z"/>
<path d="M3630 14610 c0 -5 5 -10 10 -10 6 0 10 5 10 10 0 6 -4 10 -10 10 -5
0 -10 -4 -10 -10z"/>
<path d="M6275 13580 c-3 -5 -1 -10 4 -10 6 0 11 5 11 10 0 6 -2 10 -4 10 -3
0 -8 -4 -11 -10z"/>
<path d="M4198 13523 c7 -3 16 -2 19 1 4 3 -2 6 -13 5 -11 0 -14 -3 -6 -6z"/>
<path d="M6160 13455 c0 -9 5 -15 11 -13 6 2 11 8 11 13 0 5 -5 11 -11 13 -6
2 -11 -4 -11 -13z"/>
<path d="M6206 13393 c-12 -12 -6 -33 9 -33 8 0 15 6 15 14 0 17 -14 28 -24
19z"/>
<path d="M4840 13236 c0 -9 7 -16 16 -16 9 0 14 5 12 12 -6 18 -28 21 -28 4z"/>
<path d="M17160 13090 c0 -5 5 -10 11 -10 5 0 7 5 4 10 -3 6 -8 10 -11 10 -2
0 -4 -4 -4 -10z"/>
<path d="M14190 13000 c0 -5 7 -10 15 -10 8 0 15 5 15 10 0 6 -7 10 -15 10 -8
0 -15 -4 -15 -10z"/>
<path d="M14250 12925 c0 -9 5 -15 11 -13 6 2 11 8 11 13 0 5 -5 11 -11 13 -6
2 -11 -4 -11 -13z"/>
<path d="M10946 12923 c-3 -3 -3 -23 0 -44 5 -30 3 -40 -10 -45 -9 -3 -16 -15
-16 -25 0 -14 -7 -19 -30 -19 -23 0 -30 4 -30 20 0 11 7 23 15 26 8 4 13 10
10 14 -6 10 -65 -18 -65 -31 0 -17 -47 -9 -70 11 -18 16 -25 17 -32 8 -6 -10
-8 -10 -8 -1 0 23 -45 25 -81 4 -30 -17 -37 -18 -59 -6 -21 11 -29 11 -53 -1
-35 -19 -70 -10 -62 16 3 10 2 21 -4 24 -11 7 -24 -22 -15 -35 7 -11 -78 -8
-87 3 -3 4 -39 9 -80 11 -70 2 -76 1 -71 -17 4 -16 1 -18 -24 -12 -16 4 -61
10 -100 13 -75 5 -114 -6 -114 -32 0 -19 -14 -19 -30 0 -9 11 -9 19 -2 28 14
16 -11 52 -29 41 -9 -5 -8 -10 5 -19 14 -11 14 -14 1 -25 -8 -6 -20 -10 -27
-7 -7 2 -21 0 -30 -4 -24 -13 -48 0 -48 26 0 18 -7 24 -30 27 -21 3 -27 1 -20
-6 21 -21 9 -26 -50 -19 -53 5 -60 4 -60 -12 0 -11 5 -15 15 -12 8 4 17 2 20
-3 9 -14 -23 -39 -44 -33 -10 3 -22 0 -25 -6 -11 -17 -26 -13 -19 5 9 23 -23
45 -51 35 -11 -4 -48 -7 -81 -7 -52 1 -63 -2 -85 -25 -18 -18 -34 -25 -55 -24
-44 3 -45 4 -45 21 0 13 -4 12 -25 -4 -22 -17 -30 -19 -61 -9 -31 9 -37 9 -46
-6 -5 -10 -14 -15 -19 -11 -6 3 -9 -2 -7 -12 3 -16 -3 -19 -35 -16 -35 3 -38
1 -44 -28 -7 -40 -38 -38 -38 2 0 17 -9 34 -23 44 -21 14 -31 15 -83 4 -32 -7
-60 -11 -62 -9 -2 2 -10 -1 -18 -7 -8 -6 -27 -14 -42 -18 -24 -6 -30 -3 -34
14 -6 23 -23 27 -23 6 0 -22 -50 -57 -71 -51 -19 6 -40 -8 -107 -72 -36 -35
-52 -43 -97 -48 -41 -6 -60 -14 -82 -37 -19 -21 -24 -32 -15 -35 24 -9 11 -18
-28 -20 -23 -2 -40 2 -40 8 0 6 -5 9 -11 7 -6 -2 -10 -7 -9 -12 2 -16 -72 -47
-130 -53 -33 -3 -60 -10 -60 -14 0 -5 7 -6 16 -2 12 4 15 2 12 -8 -3 -8 -16
-17 -29 -20 -51 -13 -69 -22 -74 -39 -4 -12 -20 -19 -53 -24 -46 -6 -75 -25
-105 -69 -8 -12 -27 -18 -54 -20 -24 0 -45 -7 -47 -13 -3 -8 -18 -10 -44 -7
-34 5 -42 2 -51 -16 -7 -11 -17 -21 -24 -21 -19 -1 -59 -38 -53 -49 4 -5 1
-13 -5 -17 -6 -3 -14 -1 -18 5 -5 7 -14 5 -29 -9 -12 -12 -27 -18 -32 -15 -14
9 -50 -4 -50 -18 0 -20 -64 -67 -92 -67 -15 0 -30 -5 -33 -10 -3 -6 -17 -7
-29 -4 -20 5 -24 1 -28 -25 -2 -17 0 -35 5 -40 13 -13 -1 -31 -24 -31 -36 0
-128 -50 -135 -73 -14 -47 -37 -87 -50 -87 -23 0 -66 -47 -60 -67 3 -10 1 -25
-4 -33 -8 -13 -11 -12 -24 5 -14 18 -15 18 -16 3 0 -11 -8 -18 -20 -18 -13 0
-20 -7 -20 -20 0 -13 -13 -28 -34 -41 -19 -11 -36 -29 -39 -39 -3 -11 -12 -20
-21 -20 -9 0 -16 -8 -16 -20 0 -11 -7 -23 -15 -26 -8 -4 -15 -12 -15 -20 0
-24 -40 -58 -53 -45 -6 6 -20 10 -32 10 -16 -1 -17 -2 -2 -6 12 -3 17 -14 17
-37 0 -34 -1 -35 -80 -37 -40 -1 -61 -14 -54 -33 3 -8 -2 -16 -11 -20 -10 -3
-15 -12 -11 -21 3 -8 1 -17 -5 -21 -6 -3 -7 -19 -4 -35 5 -23 3 -30 -12 -35
-34 -11 -48 -21 -51 -40 -6 -31 -51 -72 -73 -67 -13 4 -30 -4 -49 -22 -27 -26
-28 -29 -12 -41 16 -12 16 -14 -2 -45 -11 -18 -22 -46 -25 -63 -5 -23 -14 -32
-39 -38 -20 -6 -36 -18 -42 -32 -4 -13 -16 -26 -24 -29 -10 -4 -16 -18 -16
-37 0 -24 -6 -33 -26 -40 -20 -8 -25 -15 -21 -31 8 -29 -2 -49 -24 -49 -10 0
-22 -6 -26 -14 -4 -7 -18 -19 -31 -25 -14 -8 -21 -18 -18 -27 3 -8 -1 -17 -10
-21 -8 -3 -22 -19 -30 -36 -15 -28 -15 -29 1 -23 15 5 16 1 10 -36 -9 -54 -28
-77 -49 -59 -8 7 -20 10 -26 6 -8 -5 -4 -12 10 -22 20 -14 20 -16 5 -33 -8 -9
-17 -27 -20 -39 -6 -32 -14 -41 -30 -34 -16 5 -18 -3 -15 -49 1 -14 -4 -29
-10 -33 -8 -5 -8 -11 1 -21 8 -10 8 -14 1 -14 -7 0 -21 -23 -33 -50 -12 -28
-30 -55 -41 -61 -15 -8 -17 -13 -8 -24 8 -10 10 -39 5 -92 -8 -96 -13 -113
-30 -113 -14 0 -67 -63 -78 -93 -4 -11 -1 -20 7 -23 8 -3 11 -15 8 -30 -3 -17
0 -24 12 -24 10 0 16 -8 16 -22 l0 -21 -25 23 c-29 27 -42 22 -23 -9 11 -18
11 -23 -2 -31 -10 -6 -11 -10 -2 -10 23 0 13 -38 -12 -44 -13 -3 -26 -15 -29
-27 -5 -18 -11 -20 -36 -14 -19 4 -31 3 -31 -3 0 -6 8 -12 18 -14 14 -3 17
-16 18 -90 1 -74 -1 -90 -17 -104 -11 -9 -19 -25 -19 -35 0 -22 -36 -35 -55
-19 -12 10 -16 9 -20 -2 -10 -26 -1 -42 38 -66 20 -13 35 -28 31 -33 -3 -5 -9
-7 -14 -4 -14 9 -28 -26 -28 -68 0 -21 -7 -46 -16 -56 -9 -10 -16 -27 -16 -39
0 -29 32 -80 48 -75 23 8 12 -24 -13 -37 -14 -7 -25 -19 -25 -27 0 -29 -57
-106 -71 -97 -5 3 -9 1 -9 -3 0 -15 41 -34 60 -28 29 9 34 -14 6 -25 -40 -15
-28 -38 17 -31 13 2 7 -27 -9 -43 -16 -17 -14 -19 31 -29 15 -3 13 -5 -7 -6
-25 -1 -28 -5 -28 -33 0 -18 -7 -42 -16 -53 -16 -22 -12 -81 9 -123 9 -18 8
-25 -2 -31 -7 -5 -11 -19 -10 -32 2 -13 0 -30 -4 -36 -5 -7 -10 -23 -12 -35
-3 -12 -10 -25 -17 -30 -9 -5 -5 -8 12 -8 46 -1 70 -12 70 -32 0 -11 -8 -22
-20 -25 -16 -4 -18 -9 -9 -24 7 -15 6 -19 -5 -19 -24 0 -36 -60 -18 -87 8 -14
12 -33 8 -47 -8 -34 13 -44 34 -16 14 18 18 20 23 7 3 -8 3 -24 0 -35 -2 -11
0 -23 7 -27 8 -5 8 -11 -1 -21 -17 -20 -18 -122 -1 -129 15 -6 34 -53 26 -66
-3 -6 -12 -6 -22 0 -10 6 -23 4 -39 -6 -25 -17 -22 -33 6 -33 27 0 34 -38 10
-50 -26 -15 -24 -27 7 -34 19 -5 24 -11 19 -25 -4 -14 4 -26 27 -45 l33 -25
-19 -31 c-25 -44 -14 -140 20 -172 39 -38 26 -82 -32 -105 -18 -7 -19 -13 -12
-40 6 -24 15 -33 38 -38 17 -4 30 -11 30 -15 0 -5 -6 -7 -13 -4 -10 3 -14 -5
-15 -31 -1 -19 2 -35 6 -35 11 0 44 -69 37 -79 -2 -5 4 -27 15 -49 11 -23 20
-52 20 -66 0 -30 9 -56 20 -56 18 0 70 -59 64 -73 -3 -8 5 -22 19 -33 13 -11
22 -25 20 -31 -3 -7 5 -26 17 -43 12 -17 24 -49 27 -71 4 -26 18 -53 44 -83
23 -26 39 -54 39 -69 0 -25 31 -55 72 -70 10 -3 21 -19 24 -34 4 -15 14 -33
23 -39 13 -10 13 -15 2 -27 -16 -20 -11 -62 9 -63 31 -2 35 -5 21 -13 -12 -8
-9 -11 12 -16 15 -4 24 -11 21 -17 -9 -14 14 -36 46 -43 34 -7 62 -36 43 -42
-15 -5 -18 -53 -4 -53 5 0 11 -9 14 -20 3 -13 0 -20 -9 -20 -8 0 -14 -6 -14
-14 0 -22 17 -28 24 -9 5 13 12 7 27 -25 17 -35 25 -41 43 -36 17 4 25 -1 34
-20 6 -14 18 -26 27 -26 8 0 17 -12 21 -27 3 -16 10 -43 16 -60 5 -18 6 -42 3
-54 -6 -18 -4 -21 10 -15 15 5 17 1 13 -30 -3 -29 -1 -38 14 -42 10 -2 18 -10
18 -18 0 -23 17 -24 44 -3 l26 20 -7 -33 c-6 -30 -5 -32 11 -19 16 13 17 12
11 -10 -4 -19 1 -28 25 -44 16 -11 33 -27 35 -37 3 -9 12 -19 20 -22 8 -3 15
-12 15 -21 0 -8 6 -15 14 -15 9 0 12 -8 8 -25 -3 -18 0 -25 12 -25 19 0 96
-49 96 -60 0 -5 10 -6 21 -3 19 5 21 3 15 -20 -5 -20 -2 -29 14 -37 11 -6 20
-15 20 -20 0 -17 34 -50 51 -50 10 0 21 -13 28 -30 8 -25 15 -30 42 -30 26 0
30 -3 26 -19 -3 -15 4 -22 34 -34 27 -11 42 -25 53 -50 8 -20 24 -40 35 -46
19 -11 20 -10 11 14 -12 31 3 33 25 3 14 -21 14 -24 -2 -36 -17 -12 -13 -18
40 -67 31 -30 57 -58 57 -63 0 -13 29 -24 41 -16 5 3 9 12 9 21 0 11 6 14 23
9 12 -3 25 -6 29 -6 3 0 6 -15 5 -34 -1 -40 20 -71 37 -57 14 11 27 4 42 -24
6 -11 20 -22 30 -23 10 -2 29 -14 42 -25 13 -12 33 -22 45 -22 16 0 23 -7 25
-27 2 -16 9 -28 15 -28 7 0 24 -7 40 -14 15 -8 27 -10 27 -5 0 5 12 14 27 20
24 9 30 7 45 -12 13 -16 32 -22 70 -25 29 -3 59 -11 68 -19 9 -8 22 -15 28
-15 7 0 12 -4 12 -9 0 -18 33 -20 61 -4 23 14 31 15 41 5 10 -10 10 -15 -2
-22 -16 -10 -8 -13 27 -10 16 1 26 -6 32 -22 12 -32 109 -60 122 -35 7 12 16
14 42 6 17 -5 42 -9 55 -9 13 0 38 -6 55 -13 67 -29 100 -36 147 -32 35 3 52
0 57 -9 10 -17 32 -22 56 -11 23 10 60 -22 54 -47 -6 -20 7 -31 41 -36 15 -2
21 1 17 8 -4 6 5 10 23 10 26 0 29 -3 24 -26 -4 -23 -2 -25 17 -19 11 3 26 3
33 -2 7 -4 18 -8 23 -8 6 -1 28 -4 50 -8 93 -18 95 -18 95 3 0 13 5 17 14 14
8 -3 16 2 19 13 4 16 6 15 12 -4 8 -25 25 -29 41 -13 8 8 24 4 52 -11 38 -20
43 -21 59 -7 20 17 73 32 73 21 0 -5 10 -14 21 -21 16 -10 24 -11 33 -2 8 8 7
13 -4 20 -11 7 -12 12 -3 21 17 17 43 3 44 -23 1 -13 2 -30 3 -38 2 -21 54
-26 62 -6 7 19 47 21 66 3 18 -18 108 -20 102 -2 -6 16 8 26 22 17 6 -4 16
-17 23 -30 9 -18 17 -21 39 -16 15 4 31 13 35 21 11 19 31 16 52 -7 11 -12 29
-19 44 -18 15 1 32 -1 39 -6 7 -4 21 3 35 18 24 26 47 25 26 -1 -9 -10 -8 -13
1 -13 7 0 19 8 26 17 13 17 15 17 29 -2 13 -16 25 -19 63 -17 26 2 59 4 75 5
15 1 27 6 27 11 0 4 15 5 33 1 17 -4 65 -6 106 -5 56 1 78 6 93 20 29 27 75
31 82 7 4 -17 1 -18 -24 -13 -38 7 -48 -10 -22 -37 18 -18 24 -19 51 -7 20 8
31 20 31 32 0 15 5 18 20 13 12 -4 27 -1 35 5 20 16 95 3 95 -17 0 -21 26 -44
43 -37 8 3 20 16 27 30 15 28 23 30 40 9 13 -15 47 -20 74 -9 11 4 14 14 10
29 -10 40 45 71 83 47 13 -8 2 -28 -39 -73 -17 -18 -17 -19 6 -19 13 0 26 4
28 9 2 5 19 4 40 -4 31 -10 40 -10 49 1 9 11 15 11 25 3 11 -9 14 -6 14 19 0
41 -16 49 -40 20 l-20 -23 2 34 c3 38 18 49 40 29 8 -7 23 -18 33 -24 11 -6
20 -20 20 -30 0 -10 8 -20 17 -22 13 -2 16 1 12 13 -7 18 22 55 43 55 8 0 13
-12 13 -32 0 -18 4 -28 8 -22 11 17 51 36 62 29 12 -7 24 40 15 56 -10 16 72
89 108 96 27 5 29 4 22 -16 -16 -51 62 -72 104 -27 25 26 21 46 -9 46 -10 0
-21 7 -24 16 -4 11 0 15 17 13 28 -3 67 9 67 22 0 7 29 8 80 3 51 -4 80 -3 80
3 0 6 11 22 26 36 22 23 23 26 7 30 -10 3 4 5 30 6 40 1 50 5 54 21 4 16 8 18
20 9 10 -9 17 -9 25 -1 7 7 23 12 38 12 23 1 24 2 8 14 -25 19 -22 29 6 22 34
-8 62 24 46 54 -10 18 -9 22 8 27 11 3 22 13 25 24 3 12 17 22 36 25 17 4 31
10 31 15 0 5 10 13 21 20 16 8 20 8 14 -1 -6 -9 -2 -9 16 0 19 11 28 10 57 -6
27 -14 37 -16 50 -6 17 12 30 18 57 27 8 2 15 16 15 30 0 16 4 24 10 20 6 -4
22 1 36 9 18 12 29 14 43 6 20 -10 33 5 35 40 1 8 16 23 35 32 19 9 37 22 41
28 4 6 24 13 46 17 21 3 47 12 56 21 12 10 29 13 52 9 40 -6 61 11 53 44 -9
32 20 78 56 94 27 12 35 11 55 -1 22 -14 24 -14 29 5 3 12 12 21 21 21 12 0
13 3 4 12 -7 7 -12 18 -12 24 0 17 40 28 53 15 17 -17 38 -13 35 7 -2 13 3 16
25 14 24 -3 27 0 27 25 0 45 22 82 53 89 15 3 27 10 27 16 0 6 -7 8 -15 5 -23
-10 -26 8 -5 31 11 12 20 34 20 50 0 16 7 35 15 42 8 7 15 19 15 27 0 20 25
26 50 13 18 -9 25 -8 41 6 13 12 16 21 9 28 -18 18 -11 26 20 20 36 -8 63 11
55 37 -7 20 28 49 60 49 12 0 16 3 9 8 -21 13 -27 52 -10 58 9 3 16 13 16 21
0 23 35 10 38 -15 2 -12 10 -22 19 -22 13 0 13 2 2 16 -11 14 -11 18 5 29 17
13 17 14 -3 34 -12 12 -25 21 -31 21 -5 0 -10 7 -10 15 0 18 21 20 38 3 24
-24 82 -12 82 17 0 1 -17 6 -37 10 -22 4 -32 10 -23 13 8 3 21 11 28 19 12 12
12 17 -2 32 -21 23 -20 34 3 55 13 12 24 14 41 8 20 -7 28 -4 47 18 13 16 23
33 23 39 0 6 12 11 26 11 31 0 28 20 -4 35 -12 5 -22 16 -22 24 0 10 10 12 44
7 39 -6 45 -5 51 14 3 11 13 20 22 20 12 0 13 3 4 14 -6 8 -10 20 -9 27 2 8
-4 13 -14 11 -9 -1 -22 7 -29 20 -7 13 -19 29 -28 36 -14 11 -14 13 3 27 25
19 36 19 36 -1 0 -12 7 -15 25 -12 27 6 34 -6 10 -16 -18 -7 -20 -36 -2 -36
19 0 37 21 37 42 0 11 7 18 19 18 13 0 24 11 32 34 7 20 24 40 38 46 52 24 56
27 59 44 2 9 -5 19 -16 24 -26 10 -12 52 18 52 11 0 23 7 26 15 4 8 11 15 17
15 6 0 21 12 33 27 18 22 24 25 36 15 8 -6 18 -9 21 -5 13 12 7 22 -15 25 -19
2 -23 8 -20 36 1 18 12 52 23 74 18 36 19 44 8 65 -12 23 -11 27 11 47 14 11
24 28 22 38 -2 9 2 19 9 23 9 6 10 -4 4 -41 -6 -43 -5 -47 9 -35 8 7 18 28 22
46 3 18 17 43 30 56 23 22 33 59 15 59 -5 0 -16 -12 -26 -26 -13 -20 -19 -23
-26 -13 -4 7 -4 18 1 25 6 6 7 14 3 17 -3 4 1 7 9 7 9 0 18 11 20 24 4 19 0
26 -19 30 -12 4 -23 13 -23 20 0 8 -5 16 -12 18 -6 2 -8 10 -4 16 10 17 26 15
26 -3 0 -8 7 -15 16 -15 11 0 14 6 9 20 -4 13 0 31 10 47 14 21 15 27 4 34 -8
5 -23 8 -34 6 -14 -1 -21 5 -23 21 -2 12 1 22 7 22 6 0 11 7 11 15 0 9 7 18
15 21 8 4 15 17 15 31 0 14 10 33 23 44 12 10 16 18 10 19 -16 0 -17 40 -2 40
7 0 8 14 4 39 -6 36 -3 43 30 80 28 31 36 47 33 66 -4 20 -1 25 14 25 24 0 35
27 20 51 -16 25 3 35 34 18 27 -14 33 -11 39 20 3 18 1 21 -16 16 -14 -5 -21
0 -28 17 -5 13 -7 26 -4 30 2 4 -7 24 -20 45 -41 65 -15 155 35 124 23 -14 38
-2 38 31 0 9 5 20 10 23 13 8 7 84 -9 113 -10 18 -10 26 0 38 9 11 8 18 -5 32
-21 24 -20 29 5 35 16 4 19 11 14 27 -4 12 -1 34 5 50 10 24 9 34 -6 60 -15
24 -16 34 -7 49 7 10 9 22 5 25 -12 13 -10 81 4 103 12 19 12 28 -3 64 -13 33
-14 45 -4 61 9 14 9 28 -1 59 -9 32 -9 45 1 61 10 17 9 23 -5 40 -13 13 -19
38 -20 76 -1 31 -9 77 -18 102 -9 27 -12 48 -6 55 6 7 3 63 -6 146 -9 74 -17
144 -17 155 -1 14 -7 20 -17 16 -12 -4 -12 -2 -3 8 9 9 9 19 2 32 -8 15 -7 24
7 39 13 15 14 22 5 33 -10 11 -7 17 11 30 l23 17 -37 32 c-49 43 -62 71 -46
97 9 14 20 20 35 17 21 -4 21 -2 9 22 -7 14 -11 32 -9 39 3 7 -5 12 -21 12
-26 0 -36 23 -16 35 18 11 11 44 -13 60 -19 12 -23 23 -22 51 1 19 7 40 14 47
14 14 14 37 1 37 -5 0 -10 5 -10 10 0 6 7 10 16 10 22 0 12 23 -15 35 -26 12
-25 51 2 49 26 -2 21 12 -13 36 -17 12 -27 26 -24 31 3 6 1 23 -6 39 -10 23
-9 33 4 52 15 23 15 26 -6 46 -13 11 -36 24 -51 28 -20 5 -25 10 -18 17 13 13
14 54 2 61 -5 3 -12 35 -16 71 -5 46 -11 65 -21 65 -13 0 -19 34 -15 81 1 10
-12 27 -29 39 -24 17 -30 28 -26 44 3 14 -3 32 -20 51 -17 20 -23 36 -19 52 3
13 -1 34 -11 48 -9 14 -14 33 -12 43 3 10 -1 23 -9 30 -17 17 -17 52 1 52 8 0
18 5 21 11 8 12 -25 40 -41 34 -7 -2 -22 3 -34 12 -17 12 -21 23 -18 52 4 28
0 40 -17 53 -16 12 -24 32 -28 70 -4 35 -12 56 -24 63 -10 6 -32 24 -50 41
-18 18 -33 30 -33 28 0 -2 -9 5 -21 17 -13 13 -19 28 -15 42 3 13 -3 32 -18
52 -13 16 -26 40 -30 53 -4 12 -11 22 -16 22 -5 0 -12 9 -15 20 -3 11 -15 20
-25 20 -13 0 -20 8 -22 26 -2 21 -13 30 -51 45 -52 21 -155 114 -134 123 8 3
7 8 -6 16 -33 21 -67 65 -67 86 0 12 -22 45 -50 75 -27 30 -50 57 -50 61 0 3
-12 9 -27 12 -30 7 -123 90 -123 109 0 12 -62 57 -78 57 -17 0 -76 72 -77 93
0 16 -5 21 -20 20 -11 -2 -29 1 -40 6 -11 5 -28 12 -38 15 -13 4 -16 12 -12
25 7 24 -16 43 -55 45 -18 1 -44 14 -64 32 -19 17 -50 34 -69 38 -27 5 -36 12
-39 29 -2 17 -11 23 -38 25 -20 2 -42 12 -50 23 -11 14 -33 22 -73 26 -52 5
-73 16 -46 25 6 2 1 15 -12 31 -17 22 -27 27 -46 22 -18 -4 -29 1 -48 22 -19
23 -26 26 -36 16 -18 -18 -39 -16 -39 3 0 13 -8 15 -40 10 -27 -4 -44 -1 -54
9 -8 8 -21 15 -30 15 -8 0 -18 5 -21 10 -3 6 -23 10 -44 10 -40 0 -62 15 -54
36 4 10 -4 13 -29 13 -65 -2 -117 36 -89 64 16 16 14 27 -6 27 -10 0 -27 7
-37 15 -17 13 -22 13 -38 -1 -15 -14 -22 -15 -48 -4 -16 7 -41 9 -56 6 -16 -4
-23 -3 -19 3 3 6 -3 19 -14 30 -15 15 -28 19 -51 15 -19 -4 -30 -2 -30 5 0 6
-11 8 -30 5 -21 -5 -30 -3 -30 6 0 9 -10 11 -32 6 -26 -5 -36 -2 -49 15 -12
17 -20 19 -35 12 -10 -6 -36 -13 -57 -16 -33 -5 -39 -3 -46 16 -5 12 -5 24 -1
27 5 3 12 18 15 33 6 23 4 27 -13 27 -12 0 -25 7 -30 16 -13 23 -46 13 -50
-14 -4 -24 -32 -31 -32 -7 0 8 4 15 9 15 8 0 9 42 2 71 -2 10 -28 19 -35 12z
m678 -309 c9 -3 16 -13 16 -21 0 -10 -6 -13 -16 -9 -9 3 -20 6 -25 6 -5 0 -9
7 -9 15 0 16 9 19 34 9z m-207 -30 c-9 -9 -28 6 -21 18 4 6 10 6 17 -1 6 -6 8
-13 4 -17z m-2787 -24 c0 -5 -4 -10 -9 -10 -6 0 -13 5 -16 10 -3 6 1 10 9 10
9 0 16 -4 16 -10z m2990 -19 c0 -10 -30 -24 -37 -17 -3 3 -2 9 2 15 8 13 35
15 35 2z m-3615 -241 c3 -5 -1 -10 -9 -10 -9 0 -16 5 -16 10 0 6 4 10 9 10 6
0 13 -4 16 -10z m5635 -1320 c0 -5 -4 -10 -10 -10 -5 0 -10 5 -10 10 0 6 5 10
10 10 6 0 10 -4 10 -10z m-7690 -905 c0 -8 -6 -15 -13 -15 -14 0 -39 35 -30
44 9 9 43 -14 43 -29z m8160 -495 c0 -5 -4 -10 -10 -10 -5 0 -10 5 -10 10 0 6
5 10 10 10 6 0 10 -4 10 -10z m-8486 -2504 c-3 -9 -10 -13 -16 -10 -5 3 -4 12
3 20 15 18 22 13 13 -10z m8136 -746 c0 -5 -9 -10 -21 -10 -11 0 -17 5 -14 10
3 6 13 10 21 10 8 0 14 -4 14 -10z m-135 -180 c-3 -5 -13 -10 -21 -10 -8 0
-12 5 -9 10 3 6 13 10 21 10 8 0 12 -4 9 -10z m-160 -270 c3 -5 -1 -10 -9 -10
-9 0 -16 5 -16 10 0 6 4 10 9 10 6 0 13 -4 16 -10z m-28 -36 c-3 -3 -12 -4
-19 -1 -8 3 -5 6 6 6 11 1 17 -2 13 -5z m-277 -328 c0 -3 -4 -8 -10 -11 -5 -3
-10 -1 -10 4 0 6 5 11 10 11 6 0 10 -2 10 -4z m-36 -65 c7 -11 -22 -23 -35
-15 -5 3 -7 10 -4 15 8 12 32 12 39 0z m-314 -311 c0 -5 -4 -10 -10 -10 -5 0
-10 5 -10 10 0 6 5 10 10 10 6 0 10 -4 10 -10z m-146 -139 c3 -5 -1 -11 -9
-15 -9 -3 -15 0 -15 9 0 16 16 20 24 6z m-5424 -301 c0 -5 -4 -10 -10 -10 -5
0 -10 5 -10 10 0 6 5 10 10 10 6 0 10 -4 10 -10z m130 -66 c0 -14 -3 -14 -15
-4 -8 7 -15 14 -15 16 0 2 7 4 15 4 8 0 15 -7 15 -16z m515 -213 c3 -5 1 -12
-5 -16 -5 -3 -10 1 -10 9 0 18 6 21 15 7z m3520 -121 c3 -5 1 -10 -4 -10 -6 0
-11 5 -11 10 0 6 2 10 4 10 3 0 8 -4 11 -10z m-2738 -122 c-3 -8 -6 -5 -6 6
-1 11 2 17 5 13 3 -3 4 -12 1 -19z m207 -14 c9 -24 7 -54 -4 -54 -6 0 -13 7
-16 15 -4 8 -12 15 -20 15 -19 0 -18 10 4 26 22 18 29 17 36 -2z m481 -64 c3
-5 1 -10 -4 -10 -6 0 -11 5 -11 10 0 6 2 10 4 10 3 0 8 -4 11 -10z m1175 -4
c0 -3 -4 -8 -10 -11 -5 -3 -10 -1 -10 4 0 6 5 11 10 11 6 0 10 -2 10 -4z"/>
<path d="M9408 12843 c7 -3 16 -2 19 1 4 3 -2 6 -13 5 -11 0 -14 -3 -6 -6z"/>
<path d="M14355 12800 c3 -5 8 -10 11 -10 2 0 4 5 4 10 0 6 -5 10 -11 10 -5 0
-7 -4 -4 -10z"/>
<path d="M11940 12500 c0 -13 28 -25 38 -16 3 4 0 11 -8 16 -20 13 -30 12 -30
0z"/>
<path d="M16600 12350 c0 -5 5 -10 10 -10 6 0 10 5 10 10 0 6 -4 10 -10 10 -5
0 -10 -4 -10 -10z"/>
<path d="M16160 12275 c0 -8 2 -15 4 -15 2 0 6 7 10 15 3 8 1 15 -4 15 -6 0
-10 -7 -10 -15z"/>
<path d="M15374 12234 c3 -9 6 -18 6 -20 0 -2 9 -4 20 -4 25 0 26 16 1 30 -27
14 -34 13 -27 -6z"/>
<path d="M15305 12230 c3 -5 8 -10 11 -10 2 0 4 5 4 10 0 6 -5 10 -11 10 -5 0
-7 -4 -4 -10z"/>
<path d="M13712 11008 c2 -6 10 -14 16 -16 7 -2 10 2 6 12 -7 18 -28 22 -22 4z"/>
<path d="M5736 9891 c-4 -7 -5 -15 -2 -18 9 -9 19 4 14 18 -4 11 -6 11 -12 0z"/>
<path d="M14120 9700 c-13 -8 -12 -10 3 -10 9 0 17 5 17 10 0 12 -1 12 -20 0z"/>
<path d="M14130 9632 c0 -5 9 -12 21 -15 13 -3 19 -1 16 6 -5 15 -37 22 -37 9z"/>
<path d="M14151 9576 c-7 -8 -8 -17 -3 -20 14 -8 53 6 49 18 -6 17 -32 19 -46
2z"/>
<path d="M14213 7581 c-27 -23 -28 -27 -7 -35 21 -8 44 11 44 35 0 24 -9 23
-37 0z"/>
<path d="M14060 6950 c0 -5 5 -10 11 -10 5 0 7 5 4 10 -3 6 -8 10 -11 10 -2 0
-4 -4 -4 -10z"/>
<path d="M13268 5443 c6 -2 18 -2 25 0 6 3 1 5 -13 5 -14 0 -19 -2 -12 -5z"/>
<path d="M12660 4910 c-9 -17 -8 -20 13 -20 26 0 52 22 40 33 -13 14 -43 6
-53 -13z"/>
<path d="M12440 4739 c0 -5 5 -7 10 -4 6 3 10 8 10 11 0 2 -4 4 -10 4 -5 0
-10 -5 -10 -11z"/>
<path d="M12275 4620 c3 -5 8 -10 11 -10 2 0 4 5 4 10 0 6 -5 10 -11 10 -5 0
-7 -4 -4 -10z"/>
<path d="M12005 4450 c3 -5 11 -10 16 -10 6 0 7 5 4 10 -3 6 -11 10 -16 10 -6
0 -7 -4 -4 -10z"/>
<path d="M8400 4213 c-45 -15 -45 -15 -22 -24 13 -5 35 -6 48 -3 20 5 22 9 13
20 -12 15 -15 15 -39 7z"/>
<path d="M8474 4135 c21 -16 32 -13 21 4 -3 6 -14 11 -23 11 -15 -1 -15 -2 2
-15z"/>
<path d="M10490 4011 c0 -9 52 -22 60 -15 7 7 -23 24 -42 24 -10 0 -18 -4 -18
-9z"/>
</g>
</svg>
